<?xml version="1.0" encoding="UTF-8" standalone="no"?>
<svg
   xmlns:dc="http://purl.org/dc/elements/1.1/"
   xmlns:cc="http://creativecommons.org/ns#"
   xmlns:rdf="http://www.w3.org/1999/02/22-rdf-syntax-ns#"
   xmlns:svg="http://www.w3.org/2000/svg"
   xmlns="http://www.w3.org/2000/svg"
   xmlns:sodipodi="http://sodipodi.sourceforge.net/DTD/sodipodi-0.dtd"
   xmlns:inkscape="http://www.inkscape.org/namespaces/inkscape"
   version="1.0"
   width="256.000000pt"
   height="256.000000pt"
   viewBox="0 0 256.000000 256.000000"
   preserveAspectRatio="xMidYMid meet"
   id="svg2"
   inkscape:version="0.91 r13725"
   sodipodi:docname="icon-rising2.svg">
  <defs
     id="defs20" />
  <sodipodi:namedview
     pagecolor="#ffffff"
     bordercolor="#666666"
     borderopacity="1"
     objecttolerance="10"
     gridtolerance="10"
     guidetolerance="10"
     inkscape:pageopacity="0"
     inkscape:pageshadow="2"
     inkscape:window-width="1058"
     inkscape:window-height="691"
     id="namedview18"
     showgrid="false"
     inkscape:zoom="0.7375"
     inkscape:cx="-33.220344"
     inkscape:cy="160"
     inkscape:window-x="28"
     inkscape:window-y="0"
     inkscape:window-maximized="0"
     inkscape:current-layer="g6" />
  <metadata
     id="metadata4">
Created by potrace 1.12, written by Peter Selinger 2001-2015
<rdf:RDF>
  <cc:Work
     rdf:about="">
    <dc:format>image/svg+xml</dc:format>
    <dc:type
       rdf:resource="http://purl.org/dc/dcmitype/StillImage" />
    <dc:title></dc:title>
  </cc:Work>
</rdf:RDF>
</metadata>
  <g
     transform="translate(0.000000,256.000000) scale(0.100000,-0.100000)"
     fill="#000000"
     stroke="none"
     id="g6">
    <path
       d="m 1408.1607,2403.2616 c -202.1368,-37.2765 -367.9926,-68.0297 -369.7203,-68.9616 -2.5915,-0.9319 51.83,-72.6892 143.3962,-190.1103 15.549,-19.5702 23.3235,-12.1149 -127.8472,-121.1487 C 734.37143,1792.8584 441.53224,1651.2076 142.64624,1582.246 83.0418,1569.1992 69.220482,1561.7439 41.577846,1530.9908 c -52.693777,-59.6424 -54.421441,-140.7189 -4.319162,-198.4975 45.783116,-52.1872 84.655576,-58.7105 194.362286,-34.4808 167.58349,38.2084 409.45656,132.3317 584.81453,226.4549 139.07702,75.485 379.2224,235.7741 536.4399,357.8547 18.1405,13.0468 21.5958,10.251 94.1578,-84.8041 41.4639,-54.051 76.881,-96.919 79.4725,-94.1232 4.3192,3.7276 70.8343,194.7698 251.3753,716.6412 12.9574,37.2766 15.5489,53.1191 7.7745,52.1872 -5.183,-0.9319 -175.358,-31.6851 -377.4948,-68.9616 z"
       id="path8"
       style="fill:#78d1b5;fill-opacity:1"
       inkscape:connector-curvature="0" />
    <path
       d="m 1689.103,1735.1525 c -23.0138,-18 -46.5889,-69 -50.518,-109 -1.684,-18 -2.8066,-370 -1.684,-783.99996 1.684,-741 1.684,-751.999998 13.4715,-778.999998 26.3816,-63.99999963 35.3626,-68.9999996 120.1205,-68.9999996 84.758,0 93.739,4.99999997 120.1206,68.9999996 11.7875,27 11.7875,35 11.7875,805.999998 0,770.99996 0,778.99996 -11.7875,805.99996 -25.8203,62 -36.4852,69 -113.3848,72 -51.0793,1 -76.3383,-2 -88.1258,-12 z"
       id="path10"
       style="fill:#a0a0a0;fill-opacity:1"
       inkscape:connector-curvature="0" />
    <path
       d="m 1190.12,1415.1525 c -23.0138,-18 -46.5889,-69 -50.518,-109 -1.684,-18 -2.8066,-298 -1.684,-623.99996 1.684,-580 1.684,-591.999998 13.4715,-618.999998 26.3816,-63.99999963 35.3626,-68.9999996 120.1205,-68.9999996 84.758,0 93.739,4.99999997 120.1206,68.9999996 11.7875,27 11.7875,36.999998 11.7875,645.999998 0,608.99996 0,618.99996 -11.7875,645.99996 -25.8203,62 -36.4852,69 -113.3848,72 -51.0793,1 -76.3383,-2 -88.1258,-12 z"
       id="path12"
       style="fill:#a0a0a0;fill-opacity:1"
       inkscape:connector-curvature="0" />
    <path
       d="m 692.64926,1106 c -9.61954,-8 -24.89763,-31 -33.95132,-52 l -16.4098,-37 0,-457 0,-457 16.4098,-37 C 683.59558,8 703.40051,-2 784.31783,2 c 75.25871,3 86.57581,10 112.03931,72 11.883,27 11.883,38 11.883,486 0,448 0,459 -11.883,486 -26.0293,62 -36.7806,69 -114.30274,72 -52.05869,1 -76.95632,-2 -89.40514,-12 z"
       id="path14"
       style="fill:#a0a0a0;fill-opacity:1"
       inkscape:connector-curvature="0" />
    <path
       d="m 215.36112,786 c -9.61954,-8 -24.89763,-31 -33.95132,-52 L 165,697 165,400 165,103 181.4098,66 C 206.30744,8 226.11237,-2 307.02969,2 c 75.25875,3 86.57586,10 112.03935,72 11.3171,26 11.88296,40 11.88296,326 0,286 -0.56586,300 -11.88296,326 -26.02935,62 -36.7806,69 -114.30278,72 -52.05869,1 -76.95632,-2 -89.40514,-12 z"
       id="path16"
       style="fill:#a0a0a0;fill-opacity:1"
       inkscape:connector-curvature="0" />
  </g>
</svg>
