<?xml version="1.0" encoding="UTF-8" standalone="no"?>
<!-- Generator: Adobe Illustrator 18.0.0, SVG Export Plug-In . SVG Version: 6.00 Build 0)  -->

<svg
   xmlns:dc="http://purl.org/dc/elements/1.1/"
   xmlns:cc="http://creativecommons.org/ns#"
   xmlns:rdf="http://www.w3.org/1999/02/22-rdf-syntax-ns#"
   xmlns:svg="http://www.w3.org/2000/svg"
   xmlns="http://www.w3.org/2000/svg"
   xmlns:sodipodi="http://sodipodi.sourceforge.net/DTD/sodipodi-0.dtd"
   xmlns:inkscape="http://www.inkscape.org/namespaces/inkscape"
   version="1.1"
   id="Capa_1"
   x="0px"
   y="0px"
   viewBox="0 0 496.121 496.121"
   style="enable-background:new 0 0 496.121 496.121;"
   xml:space="preserve"
   inkscape:version="0.91 r13725"
   sodipodi:docname="file161.svg"><metadata
     id="metadata53"><rdf:RDF><cc:Work
         rdf:about=""><dc:format>image/svg+xml</dc:format><dc:type
           rdf:resource="http://purl.org/dc/dcmitype/StillImage" /></cc:Work></rdf:RDF></metadata><defs
     id="defs51" /><sodipodi:namedview
     pagecolor="#ffffff"
     bordercolor="#666666"
     borderopacity="1"
     objecttolerance="10"
     gridtolerance="10"
     guidetolerance="10"
     inkscape:pageopacity="0"
     inkscape:pageshadow="2"
     inkscape:window-width="1110"
     inkscape:window-height="717"
     id="namedview49"
     showgrid="false"
     inkscape:zoom="0.4756904"
     inkscape:cx="257.52044"
     inkscape:cy="248.0605"
     inkscape:window-x="0"
     inkscape:window-y="0"
     inkscape:window-maximized="0"
     inkscape:current-layer="g3" /><g
     id="g3"><path
       d="M69.162,415.397c-4.629,0-8.41-3.768-8.41-8.408V97.518c0-4.639,3.781-8.406,8.41-8.406h215.045   c4.639,0,8.404,3.768,8.404,8.406v156.385c10.457-4.598,21.625-7.807,33.244-9.625V97.518c0-22.965-18.684-41.648-41.648-41.648   H116.576V41.648c0-4.645,3.781-8.404,8.404-8.404h215.045c4.629,0,8.41,3.76,8.41,8.404v200.943   c11.313,0.129,22.403,1.801,33.243,4.752V41.648C381.679,18.678,362.995,0,340.025,0H124.98c-22.97,0-41.648,18.678-41.648,41.648   v14.221h-14.17c-22.954,0-41.653,18.683-41.653,41.648v309.471c0,22.967,18.699,41.65,41.653,41.65h162.858   c-6.384-10.258-11.442-21.391-14.917-33.242H69.162z"
       id="path5"
       style="fill:#a0a0a0;fill-opacity:1" /><path
       d="M120.129,175.922h86.485c9.189,0,16.621-7.434,16.621-16.623c0-9.184-7.432-16.621-16.621-16.621h-86.485   c-9.173,0-16.622,7.438-16.622,16.621C103.507,168.488,110.956,175.922,120.129,175.922z"
       id="path7"
       style="fill:#a0a0a0;fill-opacity:1" /><path
       d="M233.235,209.217H120.129c-9.173,0-16.622,7.432-16.622,16.621c0,9.186,7.449,16.623,16.622,16.623h113.106   c9.174,0,16.622-7.438,16.622-16.623C249.857,216.648,242.409,209.217,233.235,209.217z"
       id="path9"
       style="fill:#a0a0a0;fill-opacity:1" /><path
       d="M248.231,285.443c-2.629-5.697-8.312-9.709-14.996-9.709H120.129c-9.173,0-16.622,7.434-16.622,16.623   c0,9.188,7.449,16.623,16.622,16.623H230.57C235.603,300.492,241.531,292.602,248.231,285.443z"
       id="path11"
       style="fill:#a0a0a0;fill-opacity:1" /><path
       d="M103.507,358.875c0,9.19,7.449,16.621,16.622,16.621h91.617c0.177-11.488,1.85-22.611,4.737-33.24h-96.354   C110.956,342.256,103.507,349.688,103.507,358.875z"
       id="path13"
       style="fill:#a0a0a0;fill-opacity:1" /><path
       d="M436.349,354.773c1.87,7.318,2.971,14.963,2.971,22.854c0,51.029-41.523,92.555-92.558,92.555   c-51.05,0-92.574-41.525-92.574-92.555c0-51.055,41.524-92.572,92.574-92.572c13.002,0,25.374,2.727,36.62,7.578l13.766-22.107   c-15.324-7.242-32.351-11.414-50.386-11.414c-65.35,0-118.509,53.16-118.509,118.516c0,65.334,53.159,118.494,118.509,118.494   c65.335,0,118.498-53.16,118.498-118.494c0-18.164-4.237-35.32-11.558-50.713L436.349,354.773z"
       id="path15"
       style="fill:#78d1b5;fill-opacity:1" /><path
       d="M458.426,245.707c-3.554-2.209-7.501-3.268-11.412-3.268c-7.204,0-14.27,3.604-18.357,10.18l-85.935,138.103   l-28.798-41.066c-4.202-5.988-10.907-9.19-17.723-9.19c-4.285,0-8.602,1.27-12.389,3.918c-9.755,6.846-12.139,20.318-5.272,30.092   l47.544,67.82c4.058,5.775,10.664,9.199,17.708,9.199c0.197,0,0.39,0,0.587,0c7.257-0.207,13.925-4.025,17.759-10.176   l103.201-165.846C471.655,265.332,468.554,252.002,458.426,245.707z"
       id="path17"
       style="fill:#78d1b5;fill-opacity:1" /></g><g
     id="g19" /><g
     id="g21" /><g
     id="g23" /><g
     id="g25" /><g
     id="g27" /><g
     id="g29" /><g
     id="g31" /><g
     id="g33" /><g
     id="g35" /><g
     id="g37" /><g
     id="g39" /><g
     id="g41" /><g
     id="g43" /><g
     id="g45" /><g
     id="g47" /></svg>